HIERARCHY
ROOT root
{
	OFFSET 0.000000 0.000000 0.000000
	CHANNELS 6 Xposition Yposition Zposition Zrotation Yrotation Xrotation
	JOINT lhip
	{
		OFFSET 0.058581 -0.082280 -0.017664
		CHANNELS 3 Zrotation Yrotation Xrotation
		JOINT lknee
		{
			OFFSET 0.043451 -0.386469 0.008037
			CHANNELS 3 Zrotation Yrotation Xrotation
			JOINT lankle
			{
				OFFSET -0.014790 -0.426874 -0.037428
				CHANNELS 3 Zrotation Yrotation Xrotation
				JOINT ltoe
				{
					OFFSET 0.041054 -0.060286 0.122042
					CHANNELS 3 Zrotation Yrotation Xrotation
					End Site
					{
						OFFSET 0.000000 0.000000 0.000000
					}
				}
			}
		}
	}
	JOINT rhip
	{
		OFFSET -0.060310 -0.090513 -0.013543
		CHANNELS 3 Zrotation Yrotation Xrotation
		JOINT rknee
		{
			OFFSET -0.043257 -0.383688 -0.004843
			CHANNELS 3 Zrotation Yrotation Xrotation
			JOINT rankle
			{
				OFFSET 0.019056 -0.420046 -0.034562
				CHANNELS 3 Zrotation Yrotation Xrotation
				JOINT rtoe
				{
					OFFSET -0.034840 -0.062106 0.130323
					CHANNELS 3 Zrotation Yrotation Xrotation
					End Site
					{
						OFFSET 0.000000 0.000000 0.000000
					}
				}
			}
		}
	}
	JOINT lowerback
	{
		OFFSET 0.004439 0.124404 -0.038385
		CHANNELS 3 Zrotation Yrotation Xrotation
		JOINT upperback
		{
			OFFSET 0.004488 0.137956 0.026820
			CHANNELS 3 Zrotation Yrotation Xrotation
			JOINT chest
			{
				OFFSET -0.002265 0.056032 0.002855
				CHANNELS 3 Zrotation Yrotation Xrotation
				JOINT lowerneck
				{
					OFFSET -0.013390 0.211636 -0.033468
					CHANNELS 3 Zrotation Yrotation Xrotation
					JOINT upperneck
					{
						OFFSET 0.010113 0.088937 0.050410
						CHANNELS 3 Zrotation Yrotation Xrotation
						End Site
						{
							OFFSET 0.000000 0.000000 0.000000
						}
					}
				}
				JOINT lclavicle
				{
					OFFSET 0.071702 0.114000 -0.018898
					CHANNELS 3 Zrotation Yrotation Xrotation
					JOINT lshoulder
					{
						OFFSET 0.122921 0.045205 -0.019046
						CHANNELS 3 Zrotation Yrotation Xrotation
						JOINT lelbow
						{
							OFFSET 0.255332 -0.015649 -0.022946
							CHANNELS 3 Zrotation Yrotation Xrotation
							JOINT lwrist
							{
								OFFSET 0.265709 0.012698 -0.007375
								CHANNELS 3 Zrotation Yrotation Xrotation
								End Site
								{
									OFFSET 0.000000 0.000000 0.000000
								}
							}
						}
					}
				}
				JOINT rclavicle
				{
					OFFSET -0.082954 0.112472 -0.023707
					CHANNELS 3 Zrotation Yrotation Xrotation
					JOINT rshoulder
					{
						OFFSET -0.113228 0.046853 -0.008472
						CHANNELS 3 Zrotation Yrotation Xrotation
						JOINT relbow
						{
							OFFSET -0.260127 -0.014369 -0.031269
							CHANNELS 3 Zrotation Yrotation Xrotation
							JOINT rwrist
							{
								OFFSET -0.269108 0.006794 -0.006027
								CHANNELS 3 Zrotation Yrotation Xrotation
								End Site
								{
									OFFSET 0.000000 0.000000 0.000000
								}
							}
						}
					}
				}
			}
		}
	}
}
MOTION
Frames: 17
Frame Time: 0.033333
-0.477136 0.862772 0.902812 -62.146931 7.336527 88.281315 -9.806160 -5.180670 -9.509228 -8.648465 -1.812463 34.949424 17.647569 22.343847 -28.680368 0.000000 -0.000000 0.000000 -6.070705 1.322163 -18.922208 -4.223399 -0.071186 88.270957 4.384747 -19.022543 -2.284586 0.000000 -0.000000 0.000000 -2.274595 1.988052 9.570592 2.007733 2.475773 -2.565294 -1.577705 0.225078 7.585478 1.924760 -2.095154 -2.234782 -2.197108 2.329394 12.570343 -23.347584 10.812150 0.079925 -52.662362 -3.138717 15.979507 -110.286135 -70.191512 148.981598 23.531177 -16.170010 7.251564 21.848445 -11.352603 -5.434050 54.584784 -14.450025 17.942688 18.301926 83.692948 46.991928 -17.270503 13.877137 0.244868 
-0.523904 0.833081 0.914687 -58.082626 8.615200 89.344502 -9.502559 -4.542258 -4.377857 -8.249472 -7.357492 33.318304 15.400710 21.345346 -28.068068 0.000000 -0.000000 0.000000 -4.164996 2.404526 -27.253199 -4.301983 -1.218534 86.011144 4.433232 -18.070834 -5.313065 0.000000 -0.000000 0.000000 -1.149908 -1.514584 9.642542 2.482133 1.121082 -2.159494 -1.488013 -1.496714 7.262060 0.868004 -0.656923 -0.820478 -2.159018 3.999461 11.192156 -23.262136 9.533029 -0.000393 -54.091673 -5.215730 16.486795 -114.173843 -70.322426 152.923403 23.855554 -15.921233 6.746528 20.992006 -12.938699 -4.976726 54.966293 -17.245742 16.695690 27.767525 83.984829 57.159080 -17.369034 14.167596 -0.813452 
-0.571391 0.799918 0.937134 -53.855833 10.217053 90.988181 -7.767573 -3.853928 1.190805 -7.419777 -13.280500 29.281241 12.003140 19.230435 -24.237696 0.000000 -0.000000 0.000000 -2.707768 3.844980 -33.483461 -4.489083 -4.113550 78.020721 4.477433 -17.272903 -6.636677 0.000000 -0.000000 0.000000 0.253575 -4.921705 8.564794 3.362701 -0.314693 -1.156781 -1.231161 -3.171079 6.523408 -0.096531 0.954568 1.112011 -2.143358 5.251101 9.476728 -22.841206 8.485161 0.203058 -54.473233 -7.185174 17.396771 -117.418605 -69.820376 156.606106 24.043610 -16.062908 6.759095 20.177650 -14.731292 -4.481056 54.844990 -19.649426 15.406188 40.453559 84.157689 70.573822 -17.979411 14.114443 -2.470478 
-0.618704 0.763356 0.965410 -49.773151 11.442988 93.143068 -4.825603 -3.114722 5.096013 -7.057543 -16.786942 25.335081 7.445545 15.938922 -17.092524 0.000000 -0.000000 0.000000 -2.402670 5.234501 -37.403961 -4.423853 -8.504264 65.355203 4.726493 -16.408914 -5.034742 0.000000 -0.000000 0.000000 1.445196 -7.902869 6.821627 4.354574 -1.927460 -0.112406 -0.888986 -4.680635 5.502125 -0.828821 2.704975 2.899544 -2.077133 6.207588 7.866707 -21.840638 8.089217 0.847664 -54.672977 -8.750678 18.213356 -119.613482 -69.140338 159.641416 24.020574 -17.073902 6.795637 19.191412 -16.695900 -3.792203 54.781638 -21.039164 14.237677 50.936301 83.773255 82.034845 -18.647545 14.154091 -4.317325 
-0.666761 0.723742 0.993459 -46.031537 12.060173 95.351253 -1.402120 -1.577178 7.228144 -6.817847 -17.376348 22.377422 1.970590 11.511502 -6.675535 0.000000 -0.000000 0.000000 -2.131665 5.503236 -38.524560 -3.610312 -12.548489 49.469499 5.194815 -14.341297 -0.944105 0.000000 -0.000000 0.000000 2.288279 -9.991277 4.607795 5.113977 -3.826033 1.337704 -0.394838 -5.967673 3.869400 -1.624698 3.956788 5.182444 -1.564650 6.969560 6.044573 -20.406894 7.930130 2.179979 -55.053564 -9.443556 18.435307 -121.201213 -68.337109 161.782413 23.588015 -18.003115 7.160214 17.764396 -18.154856 -1.940675 55.524831 -21.682941 12.626594 61.581586 83.343596 92.865914 -20.144279 13.774379 -6.428799 
-0.716596 0.680870 1.014466 -43.423918 11.952626 97.058458 1.161865 0.660478 8.370135 -6.446907 -15.925113 20.935710 -2.162570 8.095501 5.487520 0.000000 -0.000000 0.000000 -1.319714 5.063543 -37.337937 -0.813646 -13.107490 33.104016 6.060488 -10.600422 4.938789 0.000000 -0.000000 0.000000 2.836218 -10.918021 1.835027 5.314370 -5.433204 3.260571 -0.056107 -6.751532 2.455428 -2.835577 4.396895 7.532733 -0.685026 7.951207 3.733129 -18.920986 7.964916 3.508471 -55.365109 -9.595841 18.134567 -122.750398 -67.187907 163.500876 22.834752 -18.088484 7.307826 15.796180 -19.424350 0.549050 57.112469 -21.807702 10.734693 73.734760 82.869630 105.495827 -20.300097 13.592597 -8.000402 
-0.767833 0.636223 1.024527 -42.359779 11.543057 97.781064 2.294066 2.109718 9.220356 -5.940843 -13.303287 21.850581 -4.573400 6.820610 16.061851 0.000000 -0.000000 0.000000 0.045533 4.572590 -35.127708 1.813222 -10.711686 21.018604 7.635141 -6.719505 10.890437 0.000000 -0.000000 0.000000 3.360613 -10.858698 -0.650886 4.874692 -6.203154 5.034507 -0.093633 -6.822494 1.557460 -4.368365 3.949285 9.745223 0.376927 9.064426 1.344240 -17.697016 8.280396 4.195718 -55.539091 -9.084121 17.588820 -124.273592 -65.800629 164.808225 21.924339 -17.516131 7.422689 13.779144 -20.156775 2.645673 59.022050 -22.264750 9.026758 86.435753 82.104675 118.345232 -19.684364 13.769497 -8.820696 
-0.820167 0.591518 1.023161 -41.986581 11.032989 97.300966 2.079569 2.040698 9.832722 -5.105259 -11.095722 25.622329 -5.297119 7.863155 22.020557 0.000000 -0.000000 0.000000 1.750209 4.139003 -32.387405 2.555067 -9.306172 16.407992 8.897645 -5.162010 13.472632 0.000000 -0.000000 0.000000 3.577563 -10.132561 -1.707594 4.316915 -6.159688 5.671669 -0.339584 -6.559644 1.532963 -5.277194 3.126204 10.745359 0.740276 9.564904 0.661543 -17.249181 9.185847 4.161413 -55.660365 -8.096977 17.231815 -125.063090 -64.827748 165.291874 21.229709 -17.064215 7.468220 12.859377 -20.662268 2.765852 59.370571 -23.269305 8.494009 95.962276 80.727763 127.655392 -19.003335 14.199828 -9.064745 
-0.872040 0.546808 1.011261 -41.957859 10.378087 96.109901 1.050751 0.577058 9.719488 -5.482528 -9.357362 32.426558 -3.654167 10.087862 21.280855 0.000000 -0.000000 0.000000 2.917848 4.786589 -29.500793 2.504551 -9.284494 18.324869 7.660699 -6.686289 12.950483 0.000000 -0.000000 0.000000 3.336363 -9.206012 -1.729838 3.999937 -5.325377 5.440875 -0.734860 -6.098303 2.178532 -5.331018 2.016242 10.344065 0.218889 9.466753 2.007688 -17.619947 10.710568 3.889699 -55.757765 -6.805258 17.049017 -124.957231 -64.766810 165.195707 20.751855 -16.658938 7.450311 13.226324 -20.749302 1.741041 58.068355 -23.383200 9.509044 98.517947 79.852743 130.284733 -18.236236 14.689434 -9.154461 
-0.923231 0.502636 0.989723 -42.278785 9.861209 94.590169 0.637254 -0.396514 8.405461 -6.621339 -6.676212 41.526941 -2.580548 11.818331 17.022742 0.000000 -0.000000 0.000000 4.099102 6.352477 -26.649638 2.317957 -8.052460 25.422671 2.796988 -7.670212 0.540164 0.000000 -0.000000 0.000000 2.995168 -8.140103 -1.082391 3.904353 -4.032825 5.163565 -1.260613 -5.288622 2.691545 -4.136836 1.950162 9.106966 -0.833010 7.765894 4.426751 -18.383636 12.141969 3.291182 -55.649966 -4.660648 16.694150 -123.991130 -65.492551 164.612238 20.106772 -15.758259 7.506608 14.707024 -19.685103 0.714976 56.107427 -22.042552 10.444938 94.701653 79.182760 126.822252 -17.955742 14.633864 -9.464831 
-0.971258 0.461445 0.962369 -42.996482 9.457072 92.755814 0.956448 -0.200718 5.333569 -6.870131 -3.210713 52.775025 -2.362691 12.460731 12.078402 0.000000 -0.000000 0.000000 5.700032 7.391205 -24.600210 1.341368 -6.131695 35.146039 -1.184028 -9.288914 -13.089013 0.000000 -0.000000 0.000000 2.445140 -6.598373 1.031198 3.955977 -2.340786 4.469151 -1.554284 -4.165633 3.278418 -2.480686 2.027432 6.199085 -1.837406 5.190871 7.176629 -19.887280 12.926200 2.185846 -55.045113 -2.188295 16.257097 -120.865565 -67.373556 161.433578 19.205548 -14.974306 8.657211 17.624923 -17.105210 -1.372820 53.332738 -20.183954 11.961913 88.049805 79.185262 119.532390 -19.005366 14.163612 -9.177579 
-1.013644 0.422466 0.936752 -43.395115 9.197731 90.430746 1.675857 -0.891515 0.874396 -6.569661 0.572618 64.807833 -2.016880 13.307315 6.510699 0.000000 -0.000000 0.000000 7.182847 7.883447 -21.094524 1.040053 -3.886914 42.221899 -3.499548 -11.886766 -22.247439 0.000000 -0.000000 0.000000 2.416728 -4.692324 4.768040 3.839894 -0.888644 4.017205 -1.752799 -3.043823 3.715830 -1.145525 1.484140 1.931086 -2.665222 3.076748 9.213501 -22.044167 12.550553 0.805944 -54.083626 0.243820 15.811742 -113.477904 -70.717871 153.173087 18.446376 -13.504742 10.185805 20.603921 -13.233714 -3.600610 50.640245 -16.582552 13.998326 81.195046 79.749463 112.100673 -20.093575 13.225550 -7.458359 
-1.051138 0.383917 0.921457 -43.391781 8.484944 88.832779 2.341095 -2.479046 -5.888490 -5.249396 4.336128 74.901530 -1.532899 14.374178 1.332733 0.000000 -0.000000 0.000000 7.605471 6.990801 -16.329441 0.693125 -2.470368 45.120461 -4.296071 -13.001179 -27.476357 0.000000 -0.000000 0.000000 2.596621 -2.519669 8.087993 3.354523 -0.145930 3.761444 -2.062610 -1.964023 3.717545 -0.448150 0.410994 -0.870933 -3.026478 1.617052 9.704648 -23.397467 12.169497 0.565000 -52.946959 2.477163 14.405932 -105.466954 -72.620796 144.283968 17.943191 -11.022383 10.978836 21.910489 -9.352310 -3.950622 49.539073 -10.325151 15.029819 79.771955 79.876798 110.524144 -21.349629 12.670012 -5.783478 
-1.086869 0.342549 0.920654 -43.786518 6.862412 88.483885 2.601904 -3.464867 -14.265685 -3.594669 7.186722 80.192688 -0.394356 14.996519 -3.387553 0.000000 -0.000000 0.000000 6.713865 4.964266 -11.344150 0.455421 0.199371 44.434994 -3.711919 -12.724525 -29.281895 0.000000 -0.000000 0.000000 1.816498 0.251386 10.166193 2.628187 0.381965 2.516012 -2.159105 -0.557664 3.540816 0.129426 -1.145461 -1.705460 -2.700991 0.275973 10.394706 -23.026934 12.874770 1.003284 -51.140268 5.454172 13.150873 -107.599105 -71.299246 145.889561 18.849344 -11.306933 9.826943 21.197897 -6.488193 -4.421430 50.220412 -4.602876 15.622154 86.832786 79.534026 117.087307 -22.574870 12.841611 -4.833182 
-1.123323 0.297029 0.933864 -45.392789 4.892250 88.732773 3.118641 -3.269823 -21.606038 -2.991526 9.522266 78.810445 0.694094 14.352940 -6.991082 0.000000 -0.000000 0.000000 4.885461 2.718012 -5.742640 -0.186286 3.685241 40.583307 -2.271195 -10.757948 -27.126440 0.000000 -0.000000 0.000000 0.360183 3.780398 10.842651 1.698024 1.262897 1.219451 -1.967808 1.487937 3.339181 0.633537 -2.802832 -0.876324 -1.505019 -1.799377 10.789607 -20.996375 13.567206 1.177588 -48.962772 8.631901 12.686364 -112.700614 -67.747802 150.698463 20.476544 -12.931255 7.836895 19.062889 -4.180341 -4.679758 52.509264 -1.297539 15.815431 101.337093 79.700181 130.462855 -23.734997 12.766355 -4.808481 
-1.160497 0.246304 0.958449 -47.090683 3.073532 89.636121 3.794993 -3.182954 -26.713899 -3.479627 11.368888 70.833296 1.713676 13.533119 -7.971073 0.000000 -0.000000 0.000000 1.627091 0.299642 -0.464611 -0.474460 6.224554 34.878997 0.297157 -7.269827 -19.884881 0.000000 -0.000000 0.000000 -0.875934 7.434324 9.942507 0.740978 2.279750 0.629742 -2.011132 3.343057 3.033001 0.875240 -4.619496 0.674667 0.104482 -4.008668 10.719362 -18.866988 14.044332 1.583911 -46.613452 10.726389 13.123830 -116.539810 -64.591216 153.813815 22.163318 -14.472014 5.695696 17.079936 -2.803372 -4.516349 54.661685 0.436635 16.160170 117.651783 79.206966 145.543540 -24.283861 12.826981 -5.374298 
-1.198434 0.191199 0.989200 -47.831566 1.675392 91.216366 4.344669 -3.851288 -29.425192 -4.884446 11.691402 57.572191 2.919538 13.301594 -6.560272 0.000000 -0.000000 0.000000 -2.405435 -2.288393 3.315353 -0.290438 6.370242 29.205779 4.314791 -3.985017 -7.229765 0.000000 -0.000000 0.000000 -2.035660 10.309070 7.712748 0.060009 2.855616 0.506349 -2.204110 4.468299 2.891894 1.183534 -5.989559 1.898805 1.453684 -5.848170 10.734007 -16.928082 15.193523 2.228497 -44.920148 11.746384 13.719686 -119.217404 -62.478797 155.916579 22.796679 -15.435823 4.653839 15.770567 -3.015825 -4.576153 56.255406 2.024566 17.337285 126.007969 77.527997 153.560644 -23.443551 13.516191 -5.524472 
